<?xml version="1.0" standalone="no"?>
<!DOCTYPE svg PUBLIC "-//W3C//DTD SVG 20010904//EN"
 "http://www.w3.org/TR/2001/REC-SVG-20010904/DTD/svg10.dtd">
<svg version="1.0" xmlns="http://www.w3.org/2000/svg"
 width="2163.000000pt" height="2163.000000pt" viewBox="0 0 2163.000000 2163.000000"
 preserveAspectRatio="xMidYMid meet">
<metadata>
Created by potrace 1.14, written by Peter Selinger 2001-2017
</metadata>
<g transform="translate(0.000000,2163.000000) scale(0.100000,-0.100000)"
fill="#000000" stroke="none">
<path d="M10265 19448 c76 -236 75 -229 69 -365 -3 -70 -6 -128 -7 -129 -1 -1
-64 -5 -140 -9 -75 -3 -145 -8 -155 -9 -14 -3 -99 -12 -197 -21 -39 -4 -122
-17 -355 -56 -290 -48 -287 -48 -330 -59 -19 -5 -53 -11 -75 -15 -22 -3 -56
-10 -75 -15 -19 -5 -46 -11 -60 -14 -227 -43 -998 -238 -915 -231 28 2 79 8
115 14 36 5 85 13 110 16 25 3 61 7 80 10 42 5 66 8 275 34 88 11 183 22 210
25 105 11 161 17 185 21 14 2 59 7 100 10 41 3 91 8 110 10 39 5 114 11 235
20 44 4 96 8 115 10 139 15 661 23 715 11 11 -2 28 -5 38 -5 16 -1 17 -23 17
-306 0 -301 0 -307 -26 -388 -14 -45 -32 -99 -40 -120 -8 -20 -14 -40 -14 -42
0 -3 59 -5 130 -5 l130 0 0 129 0 128 97 202 c53 110 100 201 103 201 3 0 49
-90 103 -201 l97 -201 0 -129 0 -129 131 0 c121 0 131 1 124 18 -4 9 -18 53
-31 97 -14 44 -29 87 -34 96 -5 10 -9 159 -10 333 0 296 1 316 17 317 10 1 32
3 48 6 81 11 534 4 695 -12 19 -2 80 -6 135 -10 55 -3 116 -8 135 -10 19 -2
64 -7 100 -10 36 -4 79 -8 95 -10 17 -2 66 -6 110 -10 44 -3 87 -8 95 -10 14
-4 43 -7 155 -19 107 -12 162 -18 185 -21 28 -4 71 -10 185 -25 44 -5 98 -12
120 -15 22 -3 60 -8 85 -11 101 -13 171 -24 190 -30 10 -3 11 -2 5 4 -24 24
-1013 257 -1255 297 -19 3 -42 8 -50 10 -18 5 -34 8 -260 45 -169 27 -225 36
-300 45 -137 16 -243 25 -355 31 -71 3 -131 7 -132 8 -1 1 -5 59 -8 128 -6
125 -5 127 31 240 20 62 39 119 41 126 4 9 -25 12 -126 12 l-131 0 0 -110 0
-111 -92 -219 c-51 -121 -95 -220 -98 -220 -3 0 -47 99 -97 220 l-93 220 0
110 0 110 -130 0 c-99 0 -128 -3 -125 -12z m313 -645 l61 -132 -61 -138 c-33
-76 -62 -140 -64 -142 -2 -2 -4 121 -4 274 0 153 2 276 4 274 2 -2 31 -63 64
-136z m330 -273 l-3 -140 -62 140 -62 141 62 136 62 136 3 -136 c1 -75 1 -199
0 -277z"/>
<path d="M7045 18235 c-5 -2 -50 -15 -100 -30 -268 -80 -587 -234 -949 -458
-202 -125 -591 -410 -816 -597 -300 -250 -428 -368 -745 -685 -237 -236 -332
-337 -495 -525 -46 -52 -95 -109 -111 -126 -130 -147 -386 -482 -595 -779
-152 -215 -444 -656 -444 -671 0 -2 -12 -23 -27 -47 -15 -23 -32 -51 -39 -62
-6 -11 -35 -63 -64 -115 -82 -147 -151 -284 -207 -410 -66 -151 -143 -367
-157 -443 -2 -15 -7 -36 -11 -46 -35 -113 -41 -397 -11 -516 38 -149 114 -274
245 -406 73 -72 201 -179 215 -179 3 0 31 -17 63 -38 179 -118 530 -248 823
-306 14 -3 34 -7 45 -9 17 -4 77 -14 193 -32 106 -17 262 -20 1007 -20 843 0
850 0 851 20 4 52 15 183 19 205 2 14 6 54 10 90 4 36 8 76 10 90 2 14 6 45
10 70 3 25 10 77 16 115 5 39 11 84 14 100 13 93 19 135 45 290 16 94 31 186
35 205 19 113 101 532 139 715 3 11 8 34 11 52 l7 32 -648 -2 c-583 -2 -702 1
-777 18 -12 3 -33 7 -47 9 -89 15 -191 67 -240 123 -90 102 -97 235 -25 497
50 182 163 471 291 744 24 51 44 95 44 98 0 12 316 636 375 740 113 199 267
440 370 580 16 23 39 55 50 70 76 106 344 440 410 510 5 6 46 51 90 100 148
164 486 498 624 614 30 25 60 51 68 58 7 8 46 41 86 74 39 33 82 68 94 78 12
10 76 60 142 110 102 77 134 104 119 99 -2 0 -7 -2 -13 -4z"/>
<path d="M14290 18234 c0 -2 35 -29 78 -60 255 -188 510 -413 797 -699 294
-294 474 -500 704 -805 106 -142 321 -452 321 -464 0 -3 13 -24 29 -48 27 -41
103 -170 169 -289 40 -72 289 -570 337 -674 334 -723 434 -1082 350 -1259 -51
-107 -161 -174 -335 -202 -122 -20 -227 -22 -787 -19 -489 3 -633 1 -633 -8 0
-7 5 -30 10 -52 5 -22 12 -56 15 -75 3 -19 8 -43 11 -52 3 -9 6 -25 8 -35 2
-10 12 -54 21 -98 9 -44 19 -91 21 -105 3 -14 18 -95 34 -180 44 -235 77 -427
105 -615 24 -162 30 -203 40 -287 13 -105 15 -122 19 -147 5 -26 12 -102 25
-251 l6 -75 850 0 c468 0 877 3 910 7 68 8 238 35 275 43 14 3 40 8 59 11 56
9 261 63 346 91 380 123 683 316 855 545 72 95 100 148 130 243 28 92 35 146
35 285 -1 137 -9 195 -46 345 -110 437 -436 1035 -989 1810 -106 149 -257 353
-270 365 -3 3 -19 23 -35 45 -16 22 -37 49 -46 60 -9 11 -77 92 -149 180 -73
88 -136 162 -139 165 -3 3 -40 43 -81 90 -128 145 -178 197 -420 440 -227 228
-285 283 -455 436 -682 612 -1400 1081 -1950 1273 -94 33 -225 71 -225 65z"/>
<path d="M10412 16750 c-80 -21 -148 -55 -202 -100 -32 -27 -33 -29 -10 -24
14 3 74 8 134 10 97 3 113 1 146 -17 47 -26 54 -56 28 -108 -28 -58 -94 -83
-218 -85 -91 0 -215 10 -231 20 -4 2 -10 0 -13 -5 -12 -19 123 -72 246 -97 97
-19 456 -27 589 -12 151 17 310 63 356 102 l25 22 -21 43 c-12 23 -34 55 -49
70 -68 71 -223 144 -376 177 -114 25 -316 27 -404 4z"/>
<path d="M11213 16295 c-293 -103 -565 -135 -814 -94 -116 18 -258 52 -376 88
l-61 19 27 -47 c77 -131 165 -361 239 -621 29 -100 116 -448 126 -500 2 -14 9
-45 15 -70 5 -25 12 -61 16 -80 3 -19 8 -48 11 -65 4 -16 4 -28 1 -25 -3 3
-64 154 -137 335 -119 299 -179 432 -275 610 -18 33 -54 101 -80 150 -26 50
-66 124 -87 165 -67 124 -122 164 -186 133 -70 -34 -67 -132 7 -246 151 -231
308 -688 416 -1207 1 -8 6 -35 10 -60 4 -25 9 -54 11 -65 6 -34 25 -181 30
-239 4 -50 4 -414 0 -511 -6 -123 -17 -319 -21 -365 -5 -52 -14 -169 -20 -255
-9 -116 -16 -200 -20 -235 -2 -19 -6 -62 -9 -95 -6 -61 -14 -147 -21 -220 -11
-116 -17 -174 -21 -210 l-4 -40 36 55 c108 167 272 593 319 830 3 14 16 77 30
140 l24 115 -5 -95 c-5 -105 -7 -127 -30 -280 -16 -113 -82 -439 -92 -455 -9
-15 30 17 54 45 24 27 29 33 173 189 146 158 123 148 185 82 29 -31 77 -82
107 -115 30 -32 68 -73 84 -91 17 -17 75 -81 130 -140 134 -145 131 -142 202
-217 l63 -66 -6 37 c-3 20 -9 61 -14 91 -5 30 -11 73 -14 95 -3 22 -12 92 -20
155 -18 132 -22 174 -31 285 -4 44 -8 91 -10 105 -4 23 -11 146 -20 315 -5 86
-5 575 0 630 2 22 6 87 10 145 3 58 8 116 10 130 2 14 7 54 10 90 4 36 9 72
10 81 2 9 6 40 10 70 3 30 8 61 10 69 2 8 7 35 11 60 3 25 7 50 8 55 1 6 5 24
9 40 4 17 9 42 11 56 7 44 74 290 101 373 48 148 119 311 217 505 118 231 127
275 64 321 -37 27 -63 29 -105 8 -47 -23 -85 -72 -169 -218 -117 -204 -208
-411 -423 -960 -49 -124 -88 -213 -89 -199 -1 77 66 337 160 618 63 193 226
631 295 794 8 20 12 36 8 36 -5 -1 -49 -16 -100 -34z"/>
<path d="M12038 15966 c-7 -7 -40 -50 -73 -95 -205 -279 -387 -653 -475 -977
-29 -105 -76 -328 -85 -401 -4 -32 -8 -71 -10 -88 -30 -240 -19 -972 21 -1355
3 -25 7 -67 10 -94 2 -27 7 -67 10 -90 5 -43 43 -280 49 -306 2 -8 4 -17 4
-18 1 -2 29 19 64 46 34 27 220 167 412 311 193 143 355 264 360 268 37 28 87
65 130 95 28 19 115 82 195 139 80 57 179 127 220 154 41 28 77 52 80 55 9 10
254 167 341 219 106 63 211 111 241 111 51 -1 96 -47 147 -148 34 -68 86 -201
101 -261 5 -20 16 -61 24 -91 14 -48 47 -198 59 -270 3 -14 12 -63 21 -110 19
-103 23 -130 31 -199 4 -30 8 -62 10 -72 2 -10 6 -49 10 -87 3 -38 7 -78 9
-89 4 -18 12 -126 21 -293 2 -36 6 -105 9 -155 7 -107 13 -227 21 -390 3 -66
8 -160 10 -210 3 -49 7 -137 10 -195 3 -58 8 -148 10 -200 12 -208 14 -334 6
-344 -4 -6 -31 -69 -61 -140 l-53 -129 -2 -141 c-2 -78 -5 -154 -9 -171 -3
-16 -9 -46 -13 -65 -3 -19 -7 -37 -8 -40 -1 -3 -5 -21 -9 -40 -49 -223 -229
-560 -510 -950 -50 -69 -95 -130 -101 -136 -5 -6 -19 -23 -30 -39 -94 -132
-357 -418 -482 -524 l-62 -53 22 -34 c213 -328 372 -564 380 -561 15 5 380
576 487 761 10 17 60 103 111 191 164 284 351 668 417 860 20 58 12 3 -19
-128 -86 -363 -260 -909 -367 -1148 -11 -24 -32 -73 -48 -109 -58 -134 -161
-325 -242 -448 -30 -46 -53 -84 -51 -86 2 -2 49 10 104 26 112 33 453 130 560
159 39 11 77 22 85 24 8 2 68 20 133 38 65 19 120 37 123 39 2 3 0 36 -5 74
-6 38 -13 96 -17 129 -3 33 -8 74 -10 90 -20 175 -27 692 -11 810 30 219 146
599 337 1100 l61 160 -6 195 c-3 107 -8 233 -10 280 -2 47 -7 144 -10 215 -3
72 -8 155 -10 185 -2 30 -7 102 -10 160 -3 58 -8 121 -10 140 -3 19 -7 71 -10
115 -3 44 -7 103 -10 130 -3 28 -7 70 -10 95 -2 25 -7 77 -10 115 -4 39 -8 81
-10 95 -2 14 -7 50 -10 80 -6 58 -23 188 -29 230 -4 22 -19 119 -31 200 -10
63 -46 245 -56 283 -6 23 -13 53 -15 65 -3 13 -12 49 -20 80 -8 32 -17 64 -19
72 -24 111 -134 457 -175 555 -4 11 -20 49 -34 85 -71 182 -188 429 -265 558
-17 29 -31 57 -31 62 0 6 -4 10 -10 10 -5 0 -10 5 -10 11 0 22 -208 323 -316
459 -136 171 -400 435 -571 571 -244 195 -503 358 -777 490 -200 96 -213 101
-228 85z m2089 -6308 c-3 -8 -6 -5 -6 6 -1 11 2 17 5 13 3 -3 4 -12 1 -19z"/>
<path d="M9069 15901 c-245 -112 -604 -337 -779 -487 -14 -12 -56 -48 -95 -80
-279 -233 -582 -572 -792 -889 -221 -333 -357 -628 -488 -1056 -63 -207 -148
-555 -180 -741 -3 -16 -7 -40 -10 -55 -8 -45 -36 -205 -41 -238 -2 -16 -6 -41
-9 -55 -3 -14 -7 -45 -10 -70 -3 -25 -10 -72 -14 -105 -5 -33 -12 -85 -16
-115 -3 -30 -8 -71 -10 -90 -3 -19 -7 -64 -10 -100 -4 -36 -8 -76 -10 -90 -2
-14 -6 -59 -10 -100 -3 -41 -8 -95 -10 -120 -11 -103 -15 -164 -31 -445 -1
-33 -6 -202 -10 -375 l-7 -315 53 -135 c65 -168 116 -309 186 -515 140 -415
154 -479 171 -785 9 -160 9 -586 0 -827 -5 -156 -4 -172 11 -177 9 -3 85 -21
167 -40 83 -19 191 -44 240 -56 134 -32 307 -70 314 -70 3 1 -73 34 -169 75
-96 41 -184 79 -195 84 -11 5 -51 23 -88 40 -37 17 -70 31 -73 31 -2 0 -24 10
-49 21 l-45 21 5 47 c3 25 8 60 10 76 43 292 54 894 21 1095 -3 14 -7 57 -11
95 -3 39 -13 120 -21 180 -9 61 -17 124 -19 140 -1 17 -5 46 -9 65 -3 19 -8
53 -11 75 -3 22 -12 81 -20 130 -7 50 -16 108 -20 130 -3 22 -10 69 -16 105
-6 36 -13 79 -15 95 -4 37 -9 49 81 -225 58 -178 178 -515 205 -575 5 -11 32
-78 60 -149 215 -537 497 -1105 767 -1538 47 -76 89 -138 93 -138 4 0 45 57
90 127 45 71 107 167 138 215 31 48 101 155 154 237 l96 151 -41 32 c-23 18
-53 42 -67 53 -64 50 -304 301 -383 399 -256 321 -476 716 -630 1131 -84 227
-165 499 -182 615 -4 24 -8 47 -10 50 -1 3 -6 25 -9 50 -3 25 -8 56 -10 70 -3
14 -10 66 -16 115 -6 50 -13 106 -15 125 -23 179 -38 489 -38 750 0 175 10
460 18 525 2 17 7 66 10 110 4 44 8 94 10 110 14 114 26 203 30 224 2 12 6 42
9 65 3 22 15 86 26 141 12 55 24 111 26 125 22 111 88 329 139 458 69 175 183
368 219 374 80 13 333 -151 961 -625 44 -33 87 -65 95 -71 8 -5 -28 35 -82 89
-53 55 -111 118 -130 140 -18 22 -41 49 -52 60 -76 83 -218 297 -291 440 -110
216 -155 387 -153 585 2 169 33 290 116 455 154 308 505 659 920 919 78 50
102 67 90 66 -2 0 -60 -27 -129 -59z"/>
<path d="M6234 13743 c-3 -16 -10 -44 -15 -63 -4 -19 -11 -49 -14 -67 -3 -17
-14 -69 -25 -115 -10 -46 -21 -95 -24 -111 -3 -15 -7 -35 -10 -45 -3 -9 -7
-28 -10 -42 -3 -14 -7 -34 -10 -45 -58 -254 -135 -691 -161 -915 -3 -30 -8
-62 -10 -70 -2 -8 -7 -44 -10 -80 -4 -35 -8 -67 -10 -70 -1 -3 -6 -36 -9 -75
-4 -38 -11 -97 -16 -130 -11 -75 -21 -158 -25 -207 l-3 -38 259 0 c200 0 259
3 260 13 0 6 2 21 4 32 3 11 7 45 10 75 3 30 7 62 9 70 3 8 7 40 11 70 3 30 7
66 10 80 2 14 11 75 20 135 8 61 20 133 25 160 5 28 12 66 14 85 6 38 12 74
22 130 4 19 8 47 10 61 2 14 8 47 14 73 5 25 13 63 16 84 8 55 71 349 104 487
34 140 95 345 138 463 l31 82 -300 0 -299 0 -6 -27z"/>
<path d="M14487 13673 c52 -145 132 -427 168 -593 11 -51 94 -470 98 -495 3
-16 10 -57 16 -90 6 -33 13 -76 16 -95 3 -19 8 -46 10 -60 3 -14 7 -41 9 -60
3 -19 8 -53 11 -75 3 -22 11 -69 16 -105 5 -36 12 -76 14 -90 2 -14 9 -63 15
-110 6 -47 16 -118 22 -157 l11 -73 258 0 258 0 -4 38 c-12 111 -38 323 -50
402 -2 14 -7 54 -11 90 -4 36 -8 67 -9 70 -1 3 -5 32 -9 65 -4 33 -10 76 -12
95 -2 19 -9 64 -14 100 -5 36 -11 79 -14 95 -11 83 -49 281 -91 480 -20 94
-38 179 -40 190 -3 11 -8 34 -12 50 -8 35 -7 29 -16 80 -5 22 -15 69 -23 105
-17 71 -42 182 -50 218 l-4 22 -299 0 -299 0 35 -97z"/>
<path d="M7749 13507 c-64 -43 -90 -100 -124 -277 -21 -105 -42 -224 -50 -283
-2 -15 -7 -47 -10 -70 -13 -85 -15 -105 -30 -252 -9 -82 -17 -163 -20 -180 -2
-16 -7 -61 -10 -100 -4 -38 -10 -74 -13 -80 -3 -5 -2 -7 3 -3 5 5 23 79 41
165 17 87 46 214 64 283 17 69 33 132 35 140 15 59 69 226 91 280 59 146 86
181 137 174 111 -16 543 -280 1046 -640 84 -60 163 -116 174 -124 21 -14 162
-117 319 -233 l78 -57 -67 -97 c-37 -54 -90 -132 -119 -173 l-52 -75 -48 1
c-55 1 -194 12 -269 20 -27 4 -48 4 -45 1 3 -3 88 -34 190 -70 102 -36 192
-68 201 -72 16 -6 26 3 130 116 78 84 215 233 224 244 6 6 36 39 69 72 l58 61
-436 291 c-240 160 -441 291 -445 291 -5 0 -11 3 -13 8 -3 7 -444 304 -463
311 -5 2 -12 7 -15 10 -7 8 -302 205 -315 210 -5 2 -33 23 -62 48 -98 83 -188
104 -254 60z"/>
<path d="M13410 13481 c-38 -12 -152 -80 -170 -101 -23 -27 -343 -246 -602
-411 -320 -205 -475 -303 -548 -348 -47 -29 -130 -81 -185 -117 -55 -35 -107
-67 -115 -71 -8 -4 -26 -14 -40 -24 -14 -9 -62 -40 -107 -69 l-83 -52 47 -57
c26 -31 61 -72 78 -92 39 -46 95 -113 191 -229 43 -52 84 -101 91 -108 7 -7
19 -22 26 -32 17 -24 -56 -50 657 234 300 120 601 240 670 267 69 27 135 54
148 59 15 7 -7 -25 -62 -88 l-85 -98 34 -152 c32 -142 76 -361 89 -442 27
-169 46 -294 50 -326 2 -21 7 -64 11 -94 3 -30 8 -73 11 -95 13 -109 18 -239
18 -427 0 -114 1 -206 2 -205 1 1 59 116 129 256 l126 253 -6 162 c-13 365
-15 417 -20 546 -3 74 -8 180 -10 235 -3 55 -7 150 -10 210 -3 61 -7 148 -10
195 -3 47 -7 129 -10 182 -3 54 -8 126 -10 160 -3 35 -7 99 -10 143 -6 92 -14
171 -30 315 -12 107 -19 140 -42 220 -48 168 -120 232 -223 201z"/>
<path d="M10628 12941 c-1 -5 -41 -51 -88 -102 -47 -51 -104 -113 -126 -138
-23 -25 -68 -74 -100 -109 -32 -35 -66 -73 -77 -85 -10 -12 -33 -38 -50 -57
-18 -19 -77 -84 -131 -145 -55 -60 -106 -117 -115 -126 -9 -9 -30 -31 -46 -50
-145 -163 -217 -242 -261 -289 -28 -30 -69 -75 -90 -100 -21 -25 -46 -50 -54
-57 -12 -9 -4 -17 50 -41 80 -37 193 -89 328 -153 57 -27 105 -49 107 -49 2 0
56 -25 120 -55 65 -31 138 -65 162 -76 43 -19 44 -21 37 -57 -4 -20 -8 -44 -9
-52 -2 -8 -10 -53 -18 -100 -9 -47 -18 -101 -21 -120 -3 -19 -10 -60 -16 -90
-6 -30 -13 -71 -16 -90 -2 -19 -9 -57 -15 -85 -5 -27 -12 -66 -15 -85 -3 -19
-9 -58 -15 -86 -5 -28 -12 -61 -14 -75 -37 -215 -67 -379 -86 -469 -5 -25 -12
-56 -14 -70 -3 -14 -7 -36 -10 -50 -2 -14 -7 -41 -10 -60 -16 -98 -95 -343
-138 -427 l-15 -28 37 1 c76 2 231 -71 382 -181 50 -36 237 -183 249 -195 3
-3 22 -20 42 -39 l37 -34 43 43 c62 62 207 181 253 210 22 13 42 26 45 29 3 4
14 12 25 18 196 121 244 142 326 140 l58 -2 -23 40 c-78 134 -106 249 -241
975 -38 202 -99 544 -135 745 -12 66 -23 130 -26 142 -5 18 2 25 48 46 89 41
150 68 213 97 33 15 80 36 105 48 38 17 176 79 418 188 l53 24 -123 137 c-68
76 -136 153 -153 172 -16 18 -34 39 -40 45 -5 6 -46 51 -90 101 -102 114 -147
165 -160 179 -6 6 -103 115 -215 241 -112 127 -209 235 -215 241 -5 6 -37 41
-70 79 -90 102 -90 103 -97 86z m7 -1106 c-2 -11 -17 -34 -32 -52 -16 -17 -35
-39 -43 -50 -8 -10 -59 -71 -113 -135 l-98 -118 -37 16 c-20 8 -113 47 -207
86 -93 38 -188 78 -210 88 -22 9 -61 26 -87 36 -27 10 -48 22 -48 25 0 4 17
11 38 17 20 5 136 45 257 87 121 42 237 82 258 87 29 8 42 19 52 42 15 33 263
793 267 817 2 8 4 -197 6 -456 1 -258 0 -479 -3 -490z m15 -1446 l0 -1241 -47
36 c-75 57 -236 152 -371 217 -108 53 -122 63 -117 82 6 26 65 330 71 367 3
14 16 84 30 155 15 72 28 141 31 155 10 61 79 414 99 505 1 6 4 26 7 45 4 19
16 80 27 135 11 55 23 114 26 130 2 17 20 111 40 210 l35 180 80 123 c43 68
79 127 79 133 0 5 2 9 5 9 3 0 5 -558 5 -1241z"/>
<path d="M7819 12279 c-1 -19 -2 -65 -4 -104 -1 -38 -6 -146 -9 -240 -4 -93
-8 -213 -11 -265 -2 -52 -7 -178 -10 -280 -3 -102 -8 -219 -10 -260 -2 -41 -7
-156 -10 -255 -3 -99 -8 -220 -11 -269 -4 -92 1 -111 11 -40 4 21 8 46 10 54
2 8 7 42 11 75 3 33 8 69 10 80 7 36 12 69 19 120 3 28 8 57 10 65 2 8 7 38
10 65 4 28 8 59 10 70 2 11 6 40 9 65 4 25 8 52 11 60 2 8 6 38 10 65 3 28 17
120 30 205 13 85 27 175 30 200 3 25 8 56 10 70 3 14 7 40 10 58 3 17 7 44 10
60 2 15 7 47 10 72 3 25 7 56 10 70 2 14 7 43 10 65 3 22 7 51 9 65 3 14 7 42
11 62 l6 37 -88 27 c-48 15 -94 29 -100 31 -9 4 -13 -6 -14 -28z"/>
<path d="M8345 11746 c65 -64 80 -89 90 -147 15 -82 69 -209 132 -308 86 -135
247 -242 451 -302 95 -28 149 -34 297 -33 104 1 149 6 225 27 114 30 210 65
210 77 0 18 -83 112 -128 145 -38 28 -222 125 -237 125 -2 0 -32 13 -67 29
-170 78 -1023 451 -1032 451 -3 0 23 -29 59 -64z"/>
<path d="M12800 11713 c-118 -53 -237 -106 -265 -118 -27 -13 -122 -54 -210
-93 -88 -38 -185 -81 -215 -95 -30 -13 -93 -41 -139 -61 -153 -67 -225 -106
-284 -151 -51 -41 -117 -116 -117 -135 0 -17 213 -84 310 -98 86 -13 302 -6
370 12 126 33 264 93 341 147 140 99 251 283 299 498 11 46 22 63 81 122 38
38 63 69 57 68 -7 0 -110 -44 -228 -96z"/>
<path d="M13146 11284 c-28 -56 -147 -218 -203 -279 -16 -16 -55 -53 -88 -81
-194 -165 -372 -226 -655 -227 -85 0 -182 5 -215 11 -33 7 -76 14 -95 16 -94
13 -257 66 -339 112 l-43 24 17 -28 c34 -55 137 -140 223 -184 82 -42 182 -83
227 -93 124 -28 187 -44 191 -48 12 -11 -101 -30 -196 -32 -167 -5 -308 27
-488 111 l-92 43 5 -102 c3 -56 7 -118 10 -137 2 -19 7 -73 11 -120 3 -47 8
-93 10 -103 2 -10 6 -46 9 -80 4 -34 8 -64 10 -67 2 -3 6 -24 9 -46 10 -62 42
-170 62 -202 9 -17 80 -93 158 -170 320 -318 413 -434 501 -624 40 -87 79
-207 99 -301 7 -37 16 -70 19 -73 11 -11 119 199 154 301 29 85 53 194 53 242
0 63 10 30 17 -58 15 -177 7 -342 -21 -449 -8 -30 -13 -56 -12 -58 6 -5 145
283 185 383 94 234 111 402 54 522 -9 21 -13 38 -8 40 6 2 113 52 239 111 191
90 231 112 237 132 6 21 27 176 44 325 3 22 7 56 10 75 3 30 -9 58 -94 200
l-98 165 -116 -1 -116 -2 47 35 c72 54 110 92 157 158 62 87 115 201 131 280
2 11 8 43 14 70 12 60 18 199 10 238 -5 28 -6 27 -34 -29z"/>
<path d="M8453 10954 c68 -95 81 -152 49 -212 -13 -25 -39 -44 -112 -80 -154
-78 -260 -135 -260 -141 0 -3 22 -18 48 -33 118 -66 194 -163 196 -251 l1 -50
-135 -84 c-74 -46 -136 -87 -138 -92 -3 -8 28 -39 166 -169 31 -30 111 -107
178 -173 108 -106 125 -128 166 -211 68 -138 136 -374 154 -538 4 -30 10 -61
14 -68 5 -10 51 45 141 168 74 100 164 223 202 273 128 174 139 193 133 224
-3 15 -8 57 -12 93 -3 36 -8 73 -10 83 -2 10 -6 46 -9 80 -3 34 -8 69 -10 77
-2 8 -6 46 -10 83 -3 37 -8 76 -9 85 -6 30 -19 156 -20 185 -1 27 6 31 132 86
72 32 134 60 137 62 2 3 -14 3 -38 0 -114 -16 -331 27 -470 93 l-72 34 70 2
c75 2 93 4 195 21 227 39 415 145 493 278 l18 31 -38 -14 c-73 -28 -154 -49
-240 -62 -26 -3 -57 -8 -68 -10 -27 -5 -245 -6 -270 -1 -11 3 -42 8 -69 12
-157 22 -375 125 -503 238 l-36 32 36 -51z"/>
<path d="M5447 10721 c-73 -71 -196 -191 -274 -267 l-143 -139 193 -197 192
-198 30 27 c17 14 66 59 110 99 44 40 90 81 101 91 12 10 63 56 114 103 52 47
120 108 151 135 32 28 58 53 58 56 1 7 -48 60 -261 277 l-139 143 -132 -130z"/>
<path d="M15578 10715 c-219 -224 -267 -277 -261 -289 3 -6 30 -33 61 -60 49
-43 168 -149 251 -225 14 -13 58 -51 96 -86 39 -35 88 -79 110 -99 l40 -36
193 198 192 197 -157 153 c-87 84 -210 205 -275 268 l-116 115 -134 -136z"/>
<path d="M6005 10217 c-117 -106 -224 -202 -355 -317 -58 -50 -106 -96 -108
-100 -2 -4 33 -46 77 -91 45 -46 81 -87 81 -91 0 -7 -57 -63 -145 -143 -16
-15 -48 -44 -70 -64 -143 -131 -377 -314 -516 -404 -176 -114 -257 -148 -545
-231 -158 -45 -384 -100 -459 -111 -22 -4 -58 -10 -80 -15 -22 -5 -62 -12 -90
-15 -27 -4 -57 -8 -65 -10 -8 -2 -42 -7 -75 -10 -33 -3 -71 -8 -85 -10 -48 -9
-227 -18 -356 -19 -126 -1 -132 -2 -129 -21 2 -11 6 -44 9 -73 7 -60 14 -113
22 -160 3 -17 7 -49 10 -70 21 -168 96 -543 155 -776 17 -67 32 -128 34 -136
39 -185 245 -767 355 -1005 39 -86 155 -321 174 -355 226 -397 423 -683 627
-905 20 -22 52 -58 70 -80 l34 -39 -60 42 c-170 121 -411 348 -585 552 -384
449 -732 1059 -970 1700 -46 123 -142 412 -165 495 -8 28 -28 100 -45 160 -51
183 -160 667 -163 723 0 6 -17 17 -38 22 -124 34 -288 97 -351 137 -21 13 -40
23 -43 23 -10 0 -128 81 -179 124 l-49 40 6 -180 c3 -98 8 -195 11 -214 2 -19
7 -62 11 -95 14 -141 59 -391 97 -540 11 -44 21 -87 23 -95 22 -97 102 -349
165 -519 104 -282 309 -716 427 -904 13 -21 28 -48 34 -60 5 -12 17 -34 27
-49 9 -14 30 -48 46 -75 93 -153 267 -406 395 -573 69 -90 221 -282 231 -290
3 -3 28 -32 55 -65 28 -32 57 -66 65 -75 8 -9 55 -61 105 -116 111 -123 416
-429 550 -550 268 -245 573 -493 886 -724 228 -167 773 -530 796 -530 4 0 25
48 47 108 21 59 60 166 86 237 27 72 87 236 133 365 47 129 88 242 92 251 4
12 -14 25 -77 57 -256 128 -539 430 -698 741 -76 150 -153 389 -185 576 -40
234 -41 597 0 865 20 133 19 129 43 230 67 282 192 534 379 767 143 178 437
461 745 716 58 49 109 98 112 110 7 27 0 505 -9 567 -3 25 -10 79 -15 120 -17
129 -20 144 -25 170 -3 14 -10 54 -16 90 -17 103 -120 518 -133 535 -10 14
-19 13 -86 -10 -161 -55 -320 -149 -431 -254 -32 -31 -44 -31 -88 1 -18 12
-22 23 -18 41 18 67 330 318 507 407 25 12 46 23 47 25 2 1 -8 34 -22 74 -19
56 -36 84 -77 127 -28 30 -57 54 -62 54 -6 -1 -52 -38 -101 -83z m296 -1527
c100 -117 95 -104 52 -131 -21 -12 -51 -30 -68 -40 -16 -9 -158 -92 -315 -184
-374 -220 -517 -304 -560 -328 l-35 -19 40 39 c22 21 92 86 155 143 63 58 120
109 126 115 6 5 48 44 94 85 46 41 88 80 94 85 6 6 40 37 76 70 169 153 244
221 254 232 6 7 14 11 17 10 3 -1 35 -36 70 -77z"/>
<path d="M15121 10245 c-40 -42 -58 -71 -76 -126 -14 -40 -24 -73 -22 -74 1
-2 25 -14 52 -28 72 -36 219 -135 300 -201 96 -79 195 -174 195 -186 0 -5 4
-10 8 -10 10 0 172 168 172 178 0 4 -24 27 -52 52 -29 25 -155 136 -280 248
-125 111 -232 202 -236 202 -5 0 -32 -25 -61 -55z"/>
<path d="M14949 9823 c-6 -16 -12 -35 -15 -43 -2 -8 -12 -49 -24 -90 -11 -41
-22 -88 -25 -104 -3 -16 -8 -33 -11 -37 -5 -8 -60 -274 -68 -334 -4 -22 -9
-53 -11 -70 -3 -16 -7 -43 -10 -60 -2 -16 -7 -57 -10 -90 -4 -33 -9 -73 -12
-90 -7 -43 -14 -542 -7 -559 3 -9 38 -41 77 -73 40 -32 77 -62 83 -68 6 -5 37
-32 70 -60 69 -59 142 -123 204 -179 74 -68 322 -318 367 -371 23 -28 52 -61
64 -75 91 -106 232 -347 285 -485 26 -70 83 -251 90 -289 2 -12 6 -31 9 -43 3
-13 7 -31 9 -40 4 -21 14 -80 22 -138 3 -22 7 -47 9 -55 17 -69 25 -503 12
-642 -24 -247 -102 -527 -204 -732 -156 -312 -434 -610 -699 -747 -61 -32 -82
-48 -78 -59 3 -8 82 -226 176 -485 94 -258 173 -472 175 -475 2 -2 14 2 26 9
12 8 31 19 42 25 11 6 22 13 25 17 3 3 23 16 45 29 391 234 1037 715 1434
1069 199 176 523 496 671 660 47 52 90 99 95 105 6 6 58 67 115 136 58 69 108
127 111 130 3 3 19 23 35 45 16 23 35 47 42 55 144 167 467 657 623 945 117
217 319 652 319 688 0 7 4 17 9 23 26 28 195 561 226 712 2 9 8 37 14 62 12
54 15 73 41 215 22 129 27 159 35 240 3 33 8 71 11 85 3 14 7 110 10 214 l5
189 -38 -32 c-69 -58 -202 -142 -296 -186 -85 -40 -265 -105 -293 -105 -18 0
-32 -22 -38 -60 -12 -72 -72 -357 -87 -415 -6 -22 -13 -48 -14 -57 -19 -98
-146 -534 -202 -693 -45 -127 -74 -210 -83 -230 -5 -11 -34 -81 -64 -155 -197
-487 -463 -955 -755 -1329 -45 -58 -133 -166 -140 -171 -3 -3 -21 -23 -40 -45
-132 -156 -407 -411 -547 -505 l-49 -33 30 34 c17 18 32 36 35 39 37 38 147
171 224 270 53 69 100 130 104 135 22 27 232 353 232 359 0 2 17 33 38 67 96
159 250 479 350 729 65 162 206 582 227 677 2 10 15 59 28 108 49 185 80 317
122 535 23 120 27 140 40 220 3 19 8 46 10 60 3 14 7 45 10 70 3 25 7 56 10
70 3 14 7 41 9 60 9 70 17 145 19 164 2 19 -6 20 -138 22 -174 2 -313 12 -430
29 -16 2 -52 7 -80 11 -41 5 -257 43 -330 58 -141 29 -563 146 -597 166 -10 6
-23 10 -30 10 -22 0 -184 86 -276 146 -193 126 -551 421 -715 589 -14 15 -21
17 -24 7 -7 -19 -42 -49 -63 -55 -12 -3 -35 11 -67 39 -111 102 -258 186 -417
240 -38 13 -71 24 -73 24 -2 0 -8 -12 -14 -27z m174 -1110 c77 -71 244 -223
267 -243 28 -25 203 -183 225 -205 12 -11 59 -54 105 -95 46 -41 111 -101 144
-133 l61 -57 -115 68 c-63 38 -144 85 -180 106 -36 20 -72 41 -80 46 -58 36
-271 160 -275 160 -2 0 -32 17 -67 39 -35 21 -118 71 -186 111 l-123 72 38 46
c20 26 48 58 61 72 14 14 31 35 39 48 9 12 17 22 19 22 3 0 33 -26 67 -57z"/>
<path d="M9695 9156 c-287 -228 -442 -516 -491 -911 -9 -75 -12 -128 -14 -258
-1 -65 -6 -134 -11 -155 -4 -20 -10 -50 -13 -66 -9 -49 -13 -39 -20 50 -13
169 -59 339 -134 494 l-46 95 -7 -50 c-14 -105 -84 -236 -222 -415 -45 -58
-90 -115 -102 -126 -11 -12 -47 -52 -80 -90 -56 -65 -172 -193 -185 -204 -54
-50 -175 -242 -228 -362 -89 -204 -125 -382 -126 -623 -1 -183 5 -215 62 -335
64 -134 248 -343 502 -570 162 -145 320 -302 371 -370 53 -70 112 -184 125
-240 4 -19 10 -42 12 -50 3 -8 5 -64 5 -125 0 -79 -4 -120 -16 -147 -19 -45
-7 -50 39 -15 71 52 108 119 131 237 1 8 3 51 4 95 2 114 -10 194 -46 313 -43
144 -87 226 -266 494 -139 207 -162 289 -155 532 3 83 7 160 9 171 3 11 8 47
11 80 7 64 36 238 40 242 1 2 3 -70 3 -160 1 -408 42 -617 152 -776 10 -14 68
-96 129 -181 244 -345 315 -480 356 -670 45 -212 33 -457 -29 -613 -7 -17 -4
-17 44 2 170 64 304 225 337 403 20 112 23 153 19 257 -4 113 -7 133 -25 216
-5 22 -8 41 -6 42 7 8 125 -87 165 -133 179 -203 280 -487 279 -785 -1 -123
-13 -239 -38 -369 -29 -153 -117 -448 -153 -515 -10 -19 -9 -19 9 -5 53 43
212 227 319 369 146 196 290 462 320 591 2 8 8 34 13 57 14 63 12 277 -3 363
-54 291 -168 494 -419 744 -146 146 -180 191 -212 280 -16 43 -28 121 -27 176
0 44 12 173 17 177 1 2 8 -23 15 -54 33 -151 107 -244 328 -413 81 -62 150
-116 153 -119 3 -3 25 -24 50 -45 155 -135 249 -379 276 -713 11 -136 5 -405
-11 -463 -2 -8 -6 -33 -10 -55 -10 -69 -33 -158 -58 -227 -13 -37 -21 -65 -17
-63 18 11 162 220 221 320 112 190 185 354 249 552 22 69 42 135 45 147 31
147 46 228 51 272 4 30 10 54 14 54 4 0 7 -6 7 -12 0 -42 29 -180 59 -282 41
-140 111 -292 187 -408 53 -82 136 -182 143 -175 2 2 0 28 -5 58 -6 30 -12 79
-16 110 -3 31 -8 66 -10 78 -3 18 -8 73 -20 251 -5 69 -6 352 -1 380 2 14 7
48 10 77 24 217 195 476 455 692 l54 45 -7 -155 c-4 -84 -9 -172 -11 -194 -2
-22 -7 -69 -10 -105 -6 -64 -30 -231 -40 -280 -2 -14 -10 -50 -16 -80 -26
-133 -98 -335 -146 -413 l-24 -38 33 17 c145 74 321 248 456 449 150 224 292
576 348 860 28 143 37 194 49 280 4 22 8 51 10 65 2 14 6 54 10 90 3 36 8 83
11 105 2 22 7 150 10 285 l6 245 -44 65 c-44 66 -338 525 -434 678 l-53 83
-21 -23 c-72 -76 -163 -335 -221 -623 l-11 -60 -19 48 c-32 81 -60 199 -64
272 -2 39 -7 129 -10 200 -6 151 -9 177 -36 307 -37 181 -108 348 -207 487
-61 87 -199 227 -285 290 l-58 43 -67 -29 c-250 -105 -698 -384 -723 -449 -35
-94 24 -199 182 -321 59 -45 162 -109 222 -136 37 -17 38 -17 33 0 -14 43 -42
163 -39 163 2 0 16 -11 31 -25 40 -38 149 -90 231 -110 72 -17 74 -19 120 -82
64 -89 137 -232 168 -332 l26 -84 13 42 c24 80 24 80 56 -14 39 -118 103 -369
122 -481 23 -141 38 -314 26 -314 -3 0 -43 75 -90 166 -142 277 -261 453 -331
488 l-31 16 6 -33 c3 -17 8 -42 10 -54 3 -12 7 -50 11 -85 3 -35 8 -81 10
-103 11 -94 5 -397 -8 -440 -3 -11 -8 -38 -12 -59 -6 -45 -12 -56 -19 -35 -72
224 -99 300 -151 414 -33 72 -91 165 -103 165 -20 0 -167 -320 -214 -467 -18
-56 -35 -103 -38 -103 -8 0 -9 17 -14 275 -5 246 5 359 43 472 11 32 18 59 17
61 -3 3 -144 -99 -188 -136 -12 -11 -45 -39 -73 -62 -166 -141 -328 -321 -429
-477 -26 -40 -48 -73 -49 -73 -2 0 -3 17 -3 38 -3 190 -57 436 -135 610 -43
96 -62 133 -65 129 -2 -2 -7 -24 -10 -48 -28 -214 -207 -475 -453 -663 -78
-60 -100 -70 -77 -33 36 55 78 184 100 306 13 71 15 277 3 317 -4 10 -9 34
-12 53 -3 19 -15 60 -25 92 -24 70 -24 70 -4 117 l16 37 17 -60 18 -60 22 75
c30 99 81 206 148 307 59 91 79 109 136 117 75 12 257 102 257 129 0 4 4 7 9
7 5 0 -2 -39 -15 -87 -13 -48 -23 -88 -21 -89 6 -6 147 72 212 117 159 110
241 220 233 311 -3 26 -13 57 -23 68 -15 17 -180 133 -233 165 -9 6 -19 13
-22 16 -29 34 -486 269 -523 269 -1 0 -38 -29 -82 -64z"/>
<path d="M10665 8224 c-27 -9 -45 -10 -64 -3 -56 22 -194 -1 -301 -49 -38 -17
-41 -21 -20 -22 126 -7 219 -23 253 -44 24 -15 21 -40 -9 -86 -15 -22 -24 -46
-21 -54 18 -46 341 -26 445 28 55 29 92 74 92 113 0 21 -85 81 -140 98 -103
32 -179 39 -235 19z"/>
<path d="M13769 7536 c-2 -3 -16 -7 -29 -10 -24 -5 -112 -27 -380 -97 -163
-42 -152 -38 -146 -62 26 -109 27 -587 2 -737 -3 -14 -9 -57 -15 -96 -32 -211
-96 -417 -188 -604 -17 -35 -30 -66 -28 -68 4 -5 164 104 261 178 191 144 348
305 422 433 20 35 79 190 80 212 1 9 5 33 17 94 2 13 7 49 11 80 3 31 8 65 11
76 7 30 12 525 6 568 -5 34 -12 44 -24 33z"/>
<path d="M7440 7467 c-8 -23 -16 -46 -19 -52 -22 -40 -23 -221 -1 -304 43
-170 157 -341 329 -496 l38 -34 -1 82 c-1 224 69 459 200 664 l33 51 -127 31
c-130 31 -381 89 -418 96 -17 4 -23 -3 -34 -38z"/>
<path d="M11385 4498 c-54 -110 -155 -254 -234 -337 l-71 -74 129 -131 c71
-72 162 -165 201 -206 40 -41 193 -199 340 -350 147 -151 303 -312 346 -356
44 -45 185 -191 314 -324 129 -133 236 -245 238 -249 2 -5 -10 -21 -26 -35
l-28 -27 51 -53 c27 -29 85 -89 127 -133 42 -45 81 -84 87 -87 5 -4 34 17 64
46 30 29 124 118 208 198 84 80 196 186 249 236 52 50 114 109 138 131 l42 39
-46 50 c-26 27 -86 91 -134 142 l-89 92 -37 -35 c-20 -19 -39 -35 -42 -35 -3
0 -46 42 -96 94 -101 104 -261 269 -676 696 -153 157 -302 311 -332 342 -42
45 -68 62 -123 83 -155 58 -364 183 -495 296 l-69 59 -36 -72z"/>
<path d="M9935 4484 c-86 -78 -221 -167 -349 -229 -136 -66 -231 -93 -309 -88
l-57 3 -134 -138 c-408 -418 -821 -843 -916 -943 -42 -44 -78 -79 -81 -79 -4
0 -23 16 -44 36 l-38 35 -34 -38 c-20 -21 -80 -84 -134 -141 l-99 -104 64 -61
c233 -227 497 -479 576 -550 60 -54 50 -57 144 42 34 35 81 85 106 110 78 82
77 78 44 112 l-28 29 81 83 c79 81 375 385 483 497 30 31 181 186 335 344 154
158 283 293 286 299 22 39 110 379 140 537 18 95 37 301 28 300 -2 -1 -31 -25
-64 -56z"/>
<path d="M7612 2547 l-63 -63 68 -66 c37 -36 87 -83 109 -104 23 -22 110 -104
194 -184 83 -80 170 -162 193 -182 l41 -38 58 63 c32 34 58 65 58 68 0 3 -37
41 -82 84 -46 43 -150 142 -233 220 -220 209 -279 265 -280 265 0 0 -29 -28
-63 -63z"/>
<path d="M13580 2558 c-25 -22 -92 -86 -150 -142 -58 -56 -172 -164 -253 -240
-81 -77 -147 -142 -147 -145 0 -3 26 -34 59 -69 l58 -63 40 38 c22 21 111 106
198 188 87 83 205 195 262 250 l104 100 -63 62 -63 62 -45 -41z"/>
</g>
</svg>
